<svg xmlns="http://www.w3.org/2000/svg" style="display: none;">
    <symbol id="play" viewBox="0 0 24 24">
        <path d="M8 5v14l11-7z"/>
    </symbol>
    <symbol id="heart" viewBox="0 0 24 24">
        <path d="M12 21.35l-1.45-1.32C5.4 15.36 2 12.28 2 8.5 2 5.42 4.42 3 7.5 3c1.74 0 3.41.81 4.5 2.09C13.09 3.81 14.76 3 16.5 3 19.58 3 22 5.42 22 8.5c0 3.78-3.4 6.86-8.55 11.54L12 21.35z"/>
    </symbol>
    <symbol id="download" viewBox="0 0 24 24">
        <path d="M19 9h-4V3H9v6H5l7 7 7-7zM5 18v2h14v-2H5z"/>
    </symbol>
    <symbol id="more" viewBox="0 0 24 24">
        <circle cx="12" cy="12" r="2"/>
        <circle cx="12" cy="6" r="2"/>
        <circle cx="12" cy="18" r="2"/>
    </symbol>
    <symbol id="shuffle" viewBox="0 0 24 24">
        <path d="M10.59 9.17L5.41 4 4 5.41l5.17 5.17 1.42-1.41zM14.5 4l2.04 2.04L4 18.59 5.41 20 17.96 7.46 20 9.5V4h-5.5zm.33 9.41l-1.41 1.41 3.13 3.13L14.5 20H20v-5.5l-2.04 2.04-3.13-3.13z"/>
    </symbol>
</svg>